<?xml version="1.0" standalone="no"?><!DOCTYPE svg PUBLIC "-//W3C//DTD SVG 1.1//EN" "http://www.w3.org/Graphics/SVG/1.1/DTD/svg11.dtd"><svg t="1711272090664" class="icon" viewBox="0 0 1117 1024" version="1.1" xmlns="http://www.w3.org/2000/svg" p-id="3027" xmlns:xlink="http://www.w3.org/1999/xlink" width="218.1640625" height="200"><path d="M1083.005106 112.490076c0-27.20497-22.258611-49.463581-49.463581-49.463581H89.034446c-27.20497 0-49.463581 22.258611-49.463581 49.463581v575.810493c0 27.20497 22.258611 49.463581 49.463581 49.463581h55.463513c27.20497 0 49.463581 22.258611 49.463581 49.463581v182.36233c0 27.20497 15.739311 33.719323 34.975698 14.487883l211.338096-211.338096c19.236387-19.246279 57.23431-34.975698 84.439279-34.975698h508.831858c27.20497 0 49.463581-22.258611 49.463581-49.463581l-0.004946-575.810493z" fill="#00CCC6" p-id="3028"></path><path d="M1033.541525 53.133779h-4.946358v570.864134c0 27.20497-22.258611 49.463581-49.463581 49.463581H470.299728c-27.20497 0-65.202892 15.739311-84.439279 34.975698L243.776313 855.472633c-19.236387 19.241333-25.082982 12.717087-25.082982-14.487883v-123.006033c0-27.20497-22.258611-44.517223-49.463581-44.517223H39.570865v4.946358c0 27.20497 22.258611 49.463581 49.463581 49.463581h55.463513c27.20497 0 49.463581 22.258611 49.463581 49.463581v182.362331c0 27.20497 15.739311 33.719323 34.975698 14.487883l211.338096-211.338097c19.236387-19.246279 57.23431-34.975698 84.439279-34.975698h508.831858c27.20497 0 49.463581-22.258611 49.463581-49.463581V102.59736c-0.004946-27.20497-22.263558-49.463581-49.468527-49.463581z" fill="#6E6E96" opacity=".15" p-id="3029"></path><path d="M985.952614 63.887161H77.26706C51.095879 63.887161 29.678149 85.299945 29.678149 111.471126v553.972322c0 26.176127 21.417731 47.588911 47.588911 47.588911h26.176127V185.231218c0-26.176127 21.417731-47.588911 47.588911-47.588911H1033.541525v-26.176127c0-26.166234-21.412784-47.579019-47.588911-47.579019z" fill="#FFFFFF" opacity=".18" p-id="3030"></path><path d="M1107.736896 112.490076c0-40.911328-33.284044-74.195371-74.195371-74.195372H89.034446c-40.911328 0-74.195371 33.284044-74.195372 74.195372v575.810493c0 40.911328 33.284044 74.195371 74.195372 74.195371h55.463513c13.637109 0 24.73179 11.094681 24.731791 24.731791v182.36233c0 33.328561 17.861299 44.329261 25.542993 47.504823 7.681694 3.185455 28.090368 8.032886 51.654817-15.541457l211.33315-211.343043c14.512615-14.517561 46.421571-27.724337 66.948957-27.724337h508.831858c40.911328 0 74.195371-33.284044 74.195371-74.195371V112.490076z m-49.463581 575.810493c0 13.637109-11.094681 24.73179-24.73179 24.73179H524.709667c-34.045783 0-77.865569 18.153134-101.929601 42.222113l-211.33315 211.338096c-3.393202 3.398148-5.248086 4.199458-5.267871 4.204404 0.781525-0.321513 3.838374-0.920023 7.518464 0.613349 3.685037 1.523478 5.431101 4.095585 5.752614 4.877109-0.004946-0.019785-0.756793-1.899402-0.756792-6.697369v-182.36233c0-40.911328-33.284044-74.195371-74.195372-74.195372H89.034446c-13.637109 0-24.73179-11.094681-24.731791-24.73179V112.490076c0-13.637109 11.094681-24.73179 24.731791-24.731791h944.507079c13.637109 0 24.73179 11.094681 24.73179 24.731791v575.810493z" fill="#6E6E96" p-id="3031"></path></svg>