<?xml version="1.0" standalone="no"?><!DOCTYPE svg PUBLIC "-//W3C//DTD SVG 1.1//EN" "http://www.w3.org/Graphics/SVG/1.1/DTD/svg11.dtd"><svg t="1711271235514" class="icon" viewBox="0 0 1024 1024" version="1.1" xmlns="http://www.w3.org/2000/svg" p-id="926" xmlns:xlink="http://www.w3.org/1999/xlink" width="200" height="200"><path d="M555.115597 650.361927a53.896812 53.896812 0 0 0-86.219017 0L253.335803 937.688057a53.393846 53.393846 0 0 0-10.165214 24.142384 53.737981 53.737981 0 0 0 13.103596 44.208092 53.473262 53.473262 0 0 0 26.736631 16.253754 54.664498 54.664498 0 0 0 26.207193 0.13236 53.843868 53.843868 0 0 0 30.336811-19.986294l172.438033-229.935025 172.438033 229.935025a53.711509 53.711509 0 0 0 45.664047 20.039237 53.367374 53.367374 0 0 0 24.486519-7.782742 54.505666 54.505666 0 0 0 18.080315-18.212675 53.287958 53.287958 0 0 0 7.623911-24.539462 54.585082 54.585082 0 0 0-2.726607-20.436316 54.611554 54.611554 0 0 0-7.015057-13.818338l-215.428417-287.32613z" fill="#5D9CF9" p-id="927"></path><path d="M80.89777 143.742481a72.321263 72.321263 0 0 1 12.097664-39.919643 69.197577 69.197577 0 0 1 8.947506-10.879956 73.80369 73.80369 0 0 1 10.879956-8.947506 72.374207 72.374207 0 0 1 39.919643-12.097664h718.5271a72.321263 72.321263 0 0 1 39.919642 12.097664 69.329937 69.329937 0 0 1 10.879956 8.947506 73.80369 73.80369 0 0 1 8.947506 10.853484 72.585982 72.585982 0 0 1 11.753529 32.904586c0.238247 2.329528 0.344135 4.685528 0.344135 7.041529v538.888707a132.994885 132.994885 0 0 1-0.68827 14.083057 131.83012 131.83012 0 0 1-2.064809 13.950697 128.785851 128.785851 0 0 1-3.441348 13.685979 133.577267 133.577267 0 0 1-7.597439 19.721574 150.836953 150.836953 0 0 1-10.429933 18.397978 158.249088 158.249088 0 0 1-8.391596 11.303507 168.096639 168.096639 0 0 1-9.476945 10.456405 148.295649 148.295649 0 0 1-16.015506 13.818338 158.249088 158.249088 0 0 1-11.700585 7.835686 178.341269 178.341269 0 0 1-12.441799 6.617978 150.175155 150.175155 0 0 1-19.721574 7.62391 133.021356 133.021356 0 0 1-13.685978 3.441349 135.059694 135.059694 0 0 1-13.950698 2.064809 133.868458 133.868458 0 0 1-14.083057 0.68827H224.587307a133.021356 133.021356 0 0 1-14.083057-0.68827 132.068368 132.068368 0 0 1-13.950698-2.064809 128.547603 128.547603 0 0 1-13.685978-3.441349 133.841986 133.841986 0 0 1-19.721574-7.597438 150.175155 150.175155 0 0 1-18.397979-10.429934 158.487336 158.487336 0 0 1-11.303506-8.391596 168.970213 168.970213 0 0 1-10.456405-9.476944 149.063335 149.063335 0 0 1-13.818338-16.015507 160.605088 160.605088 0 0 1-7.835686-11.700585 176.567651 176.567651 0 0 1-6.64445-12.441798 150.175155 150.175155 0 0 1-7.597439-19.721574 133.841986 133.841986 0 0 1-3.441348-13.685979 132.809581 132.809581 0 0 1-2.064809-13.950697 134.742031 134.742031 0 0 1-0.68827-14.083057V143.742481z" fill="#CCE1FF" p-id="928"></path><path d="M736.712911 317.980604a40.449081 40.449081 0 0 1 7.279776 9.847551 44.287508 44.287508 0 0 1 3.150157 7.570967 43.016857 43.016857 0 0 1 0.979461 20.277484 43.228632 43.228632 0 0 1-2.382472 7.835686 44.287508 44.287508 0 0 1-9.026922 13.553619l-167.249538 167.249538a41.560901 41.560901 0 0 1-25.439507 12.018248 40.449081 40.449081 0 0 1-16.227282-1.588315 45.134609 45.134609 0 0 1-14.374248-7.676854 41.560901 41.560901 0 0 1-3.04427-2.753079l-82.062926-81.904095-82.062927 82.062926a45.928767 45.928767 0 0 1-6.353259 5.214967 42.619778 42.619778 0 0 1-7.226831 3.891371 39.893171 39.893171 0 0 1-16.015507 3.176629 35.86944 35.86944 0 0 1-8.206293-0.794157 43.811014 43.811014 0 0 1-18.397978-8.682787 45.928767 45.928767 0 0 1-5.823821-5.823821 41.084407 41.084407 0 0 1-6.273843-10.509349 38.754879 38.754879 0 0 1-3.150157-16.041978 38.754879 38.754879 0 0 1 1.826561-12.150608 37.907778 37.907778 0 0 1 3.150158-7.597438c0.635326-1.217708 1.350067-2.382472 2.117753-3.520764a49.767194 49.767194 0 0 1 5.241438-6.353259l111.499693-111.473221a40.978519 40.978519 0 0 1 13.553618-9.053393 43.440407 43.440407 0 0 1 20.092181-2.964854 44.340452 44.340452 0 0 1 11.885889 2.964854 44.287508 44.287508 0 0 1 13.553619 9.053393l82.062926 82.062927 137.653941-137.653941a40.396137 40.396137 0 0 1 9.847551-7.306248 49.317172 49.317172 0 0 1 7.570967-3.123685 43.016857 43.016857 0 0 1 20.277484-0.979461 43.016857 43.016857 0 0 1 11.541754 4.103146 47.702385 47.702385 0 0 1 6.803281 4.553169c1.058876 0.847101 2.064809 1.773618 3.04427 2.753079l0.185303-0.264719z" fill="#EC532B" p-id="929"></path><path d="M80.89777 0a71.632993 71.632993 0 0 0-50.82607 21.04517 71.765353 71.765353 0 0 0-4.712001 96.357759 71.791825 71.791825 0 0 0 55.538071 26.286608h862.216637a71.659465 71.659465 0 0 0 55.538071-26.260137 71.527105 71.527105 0 0 0 16.306697-45.584632A71.897712 71.897712 0 0 0 943.114407 0H80.89777z" fill="#004BBC" p-id="930"></path></svg>