<?xml version="1.0" standalone="no"?><!DOCTYPE svg PUBLIC "-//W3C//DTD SVG 1.1//EN" "http://www.w3.org/Graphics/SVG/1.1/DTD/svg11.dtd"><svg t="1711272107808" class="icon" viewBox="0 0 1093 1024" version="1.1" xmlns="http://www.w3.org/2000/svg" p-id="3185" xmlns:xlink="http://www.w3.org/1999/xlink" width="213.4765625" height="200"><path d="M537.209749 246.735695c22.579939-125.653383 157.939631-190.594584 248.614765-187.827065 137.918426 6.636716 260.062434 134.142516 253.945461 284.241582-0.146594 3.913619-0.439782 7.800585-0.728528 11.660897-0.075518 4.60661-0.017769 9.208777-0.284304 13.993076-12.802554 202.317673-142.422864 310.224281-261.164112 371.709415-198.697242 135.723956-243.279627 247.068863-243.279627 247.068864s-59.392835-104.637115-222.529894-243.301839c-117.524072-114.698804-260.457794-191.896162-267.343276-407.251828-0.155479-4.788742 0.519743-9.386467 0.839584-13.975308 0.008884-3.891408 0.053307-7.765047 0.21767-11.683108 6.094762-150.121277 140.699272-260.493332 278.62214-253.852174 80.497948 3.886966 183.442567 66.886905 213.090121 189.217488z" fill="#FF9494" p-id="3186"></path><path d="M324.119628 128.603035c80.497948 3.878081 183.442567 66.87802 213.090121 189.208603 22.579939-125.653383 157.939631-190.594584 248.614765-187.827064 126.084281 6.068109 238.908457 113.166229 252.692747 246.175972 0.066634-0.981736 0.17769-1.923493 0.239882-2.90523 0.270977-4.784299 0.21767-9.386467 0.284304-13.993076 0.288746-3.860312 0.581934-7.747278 0.728528-11.660897 6.116973-150.099066-116.027035-277.604866-253.945461-284.241582-90.675135-2.76752-226.034827 62.173681-248.614765 187.827065-29.647553-122.330583-132.592172-185.330522-213.090121-189.208603-137.922868-6.641158-272.527378 103.730897-278.62214 253.852173a293.752432 293.752432 0 0 0-0.21767 11.683109c-0.319842 4.588841-0.995063 9.186566-0.839584 13.975307 0.315399 9.888441 1.012832 19.385964 1.887954 28.714681C59.024129 226.376879 189.981554 122.144009 324.119628 128.603035z" fill="#FFFFFF" opacity=".18" p-id="3187"></path><path d="M559.074486 250.662641c20.305509-113.001865 146.56748-171.981572 226.083691-169.556105 129.051702 6.214703 237.84676 128.247655 232.422777 261.137458-0.128825 3.54047-0.399802 7.156459-0.675222 10.874619a15.228021 15.228021 0 0 0-0.062191 1.359328l-0.044423 3.971368a192.824592 192.824592 0 0 1-0.21767 9.119932c-9.866229 155.922851-91.37701 271.518988-249.201141 353.225227-0.799604 0.417571-1.572555 0.875123-2.314411 1.385981-201.948966 137.953964-249.449908 252.364021-251.364516 257.16609a22.211232 22.211232 0 0 1 39.935796-2.705328c-2.496543-4.411151-63.217609-109.661296-227.460788-249.254449 0.386475 0.324284 0.764066 0.666337 1.128331 1.021716-22.553285-22.011331-46.110518-42.738853-68.890358-62.791153-95.899217-84.393798-186.481064-164.105469-191.762895-329.277077-0.066634-1.999011 0.155479-4.384497 0.408687-7.152016 0.13771-1.461499 0.275419-2.967421 0.386475-4.575514 0.035538-0.493089 0.053307-0.995063 0.053307-1.488153 0.004442-2.976305 0.035538-6.898809 0.199901-10.799101 2.576503-63.41751 30.57154-122.645982 78.836548-166.806355 49.006863-44.866689 113.348361-68.845936 176.512663-65.802996 75.838032 3.655969 166.335476 63.995002 192.575826 172.252548a22.211232 22.211232 0 0 0 43.449613-1.30602zM325.19021 35.342513c-74.909602-3.607104-150.960861 24.601161-208.652316 77.388375-57.065098 52.218607-90.177603 122.446081-93.233869 197.746601a311.410361 311.410361 0 0 0-0.235439 12.531578c0-0.497532 0.017769-0.995063 0.053307-1.488153-0.07996 1.106119-0.186574 2.305526-0.306515 3.576009-0.342053 3.700391-0.728528 7.902756-0.577492 12.660402 5.899303 184.388766 108.039876 274.273181 206.82211 361.199059 22.357826 19.679152 45.479719 40.024641 67.211189 61.231926 0.364264 0.35538 0.741855 0.697433 1.128331 1.021716 158.312779 134.56453 217.021508 236.327512 217.599 237.344786a22.220117 22.220117 0 0 0 39.940238-2.705328c0.39536-0.963967 45.928386-107.706708 235.185854-236.989406a24.894349 24.894349 0 0 1-2.31441 1.385981c170.431228-88.245226 262.32798-219.469186 273.113755-390.024797 0.235439-4.166827 0.266535-7.849449 0.288746-11.421016l0.035538-3.642642a20.167799 20.167799 0 0 1-0.066634 1.359328c0.315399-4.166827 0.621915-8.253694 0.777393-12.513809 3.158437-77.459451-24.805504-152.680011-78.756587-211.735235-52.267472-57.220577-123.818736-92.043347-196.316198-95.53051-98.004841-2.994074-246.544678 66.971308-271.545642 206.08914a22.211232 22.211232 0 0 1 43.445171-1.301578c-31.366702-129.491484-141.263437-201.731296-233.59553-206.182427z" fill="#6E6E96" p-id="3188"></path><path d="M1013.947196 218.536314c1.417077 12.620422 1.941262 25.476283 1.399308 38.527604-0.13771 3.722603-0.417571 7.418552-0.688548 11.092289-0.066634 4.375613-0.017769 8.76011-0.27542 13.308971-12.171755 192.393694-135.43521 294.996261-248.34823 353.456224-188.937626 129.065029-231.334427 234.950415-231.334427 234.950415s-56.478721-99.492994-211.60641-231.356638C211.335433 529.44026 75.42046 456.041021 68.872589 251.25346c-0.146594-4.54886 0.493089-8.928915 0.799604-13.291202a243.350703 243.350703 0 0 1 5.721614-53.462436c-20.105607 34.809443-32.579436 74.736354-34.334123 117.994951a293.752432 293.752432 0 0 0-0.21767 11.683108c-0.319842 4.588841-0.995063 9.186566-0.839585 13.975307 6.885482 215.355666 149.819204 292.54414 267.343277 407.251829 163.137059 138.664723 222.529894 243.301839 222.529894 243.301838s44.586828-111.344907 243.279627-247.068863c118.736806-61.485133 248.361557-169.391742 261.164112-371.709415 0.275419-4.784299 0.222112-9.386467 0.279861-13.993076 0.293188-3.860312 0.586377-7.747278 0.728528-11.660897 1.665842-40.939743-6.263568-80.160337-21.380532-115.73829z" fill="#6E6E96" opacity=".15" p-id="3189"></path></svg>