<?xml version="1.0" standalone="no"?><!DOCTYPE svg PUBLIC "-//W3C//DTD SVG 1.1//EN" "http://www.w3.org/Graphics/SVG/1.1/DTD/svg11.dtd"><svg t="1711272128257" class="icon" viewBox="0 0 1062 1024" version="1.1" xmlns="http://www.w3.org/2000/svg" p-id="3343" xmlns:xlink="http://www.w3.org/1999/xlink" width="207.421875" height="200"><path d="M383.255825 870.276764m-107.541946 0a107.541946 107.541946 0 1 0 215.083892 0 107.541946 107.541946 0 1 0-215.083892 0Z" fill="#B1B1C7" p-id="3344"></path><path d="M383.255825 788.462557c45.121307 0 81.819353 36.703191 81.819353 81.814207s-36.703191 81.814208-81.819353 81.814208-81.809062-36.708337-81.809062-81.814208c-0.005146-45.111016 36.698046-81.814208 81.809062-81.814207z m-133.269684 81.814207c0 73.483566 59.786118 133.269684 133.264539 133.269684 73.483566 0 133.27483-59.786118 133.274829-133.269684s-59.786118-133.269684-133.274829-133.269684c-73.483566 0-133.264538 59.786118-133.264539 133.269684z" fill="#6E6E96" p-id="3345"></path><path d="M774.677634 870.276764m-107.541945 0a107.541946 107.541946 0 1 0 215.083891 0 107.541946 107.541946 0 1 0-215.083891 0Z" fill="#B1B1C7" p-id="3346"></path><path d="M774.677634 788.462557c45.116162 0 81.819353 36.703191 81.819354 81.814207s-36.713482 81.814208-81.819354 81.814208-81.809062-36.708337-81.809062-81.814208c0-45.111016 36.698046-81.814208 81.809062-81.814207z m-133.264538 81.814207c0 73.483566 59.780973 133.269684 133.264538 133.269684 73.488711 0 133.27483-59.786118 133.27483-133.269684s-59.786118-133.269684-133.27483-133.269684c-73.483566 0-133.264538 59.786118-133.264538 133.269684z" fill="#6E6E96" p-id="3347"></path><path d="M385.303753 728.341978v-159.933912c0-27.611009-22.388278-49.999286-49.994141-49.999286-27.611009 0-49.994141 22.388278-49.994141 49.999286v209.933198c0 27.605863 22.383132 49.994141 49.994141 49.994141h597.845744c27.605863 0 49.994141-22.388278 49.994141-49.994141s-22.388278-49.999286-49.994141-49.999286H385.303753z" fill="#DDDDDD" p-id="3348"></path><path d="M411.031491 728.341978v-159.933912c0-41.750974-33.976051-75.721879-75.721879-75.721879-41.756119 0-75.721879 33.970906-75.721879 75.721879v209.933198c0 41.745828 33.970906 75.721879 75.721879 75.72188h597.845744c41.750974 0 75.721879-33.976051 75.721879-75.72188 0-41.750974-33.970906-75.727025-75.721879-75.727024H385.303753c14.206857 0 25.727738 11.531172 25.727738 25.727738z m522.123865 25.727738c13.388715 0 24.266403 10.882833 24.266403 24.271548s-10.877688 24.266403-24.266403 24.266403H335.309612a24.286985 24.286985 0 0 1-24.266402-24.266403v-209.933198a24.286985 24.286985 0 0 1 24.266402-24.271548c13.378424 0 24.266403 10.882833 24.266403 24.271548v159.933912a25.727738 25.727738 0 0 0 25.727738 25.727738h547.851603z" fill="#6E6E96" p-id="3349"></path><path d="M306.736386 188.285879L203.069038 84.623677l-14.644229-14.639083H81.953137c-27.611009 0-49.994141 22.383132-49.994141 49.99414s22.383132 49.994141 49.994141 49.994141h85.760843l-35.349912-14.644228 103.667348 103.662203c19.522208 19.522208 51.172471 19.522208 70.699825 0 19.532499-19.522208 19.527353-51.177617 0.005145-70.704971z" fill="#DDDDDD" p-id="3350"></path><path d="M324.925897 170.096368L221.258549 66.42902l-14.649374-14.639083a25.712302 25.712302 0 0 0-18.184366-7.533082H81.953137c-41.750974 0-75.721879 33.970906-75.721879 75.721879 0 41.756119 33.970906 75.721879 75.721879 75.72188h85.760843a25.727738 25.727738 0 0 0 9.848578-49.495023l-35.349912-14.644229a25.727738 25.727738 0 0 0-28.038089 41.956796l103.667348 103.662202a75.238198 75.238198 0 0 0 53.544569 22.177311c20.227148 0 39.239946-7.877833 53.539423-22.182456 29.525152-29.520007 29.525152-77.55884 0-107.078847z m-36.384167 36.384168a24.286985 24.286985 0 0 1 0 34.315657 24.286985 24.286985 0 0 1-34.315658 0L150.558724 137.13399a25.727738 25.727738 0 0 1-28.038089 41.961941l35.349912 14.644229a25.722593 25.722593 0 0 1 9.848578-49.495023H81.953137c-13.378424 0-24.266403-10.887979-24.266402-24.266403s10.887979-24.266403 24.266402-24.266402H188.419664a25.717447 25.717447 0 0 1-18.189511-7.533082l14.644228 14.639083 103.667349 103.662203z" fill="#6E6E96" p-id="3351"></path><path d="M265.76239 154.726618h650.335476c67.056777 0 111.205576 53.812137 98.09472 119.582527l-94.873607 244.053325c-23.973106 65.780681-42.193491 119.582527-145.763074 119.582527H386.744506c-103.569583 0-121.939188-18.349023-121.939188-121.934043V154.726618h0.957072z" fill="#F78383" p-id="3352"></path><path d="M916.437472 215.104474c48.532805 0 85.03532 28.18731 96.561347 68.677624l1.54881-3.977508c13.110855-65.77039-31.037943-119.582527-98.099866-119.582527H265.155216v54.887556l651.282256-0.005145z" fill="#F7F7F7" opacity=".15" p-id="3353"></path><path d="M265.76239 180.454356h650.335476c24.580281 0 45.61528 9.133347 59.225253 25.722593 13.609974 16.5841 18.451934 38.998106 13.640847 63.104996a26.96267 26.96267 0 0 1 1.250368-4.291387l-94.873607 244.048179c-0.195531 0.514555-1.13202 3.092474-1.132021 3.092474-23.499716 64.540604-36.45106 100.091193-120.652801 100.091193H386.744506c-89.02312 0-96.21145-7.18833-96.211449-96.21145V154.726618a25.727738 25.727738 0 0 1-25.727739 25.727738h0.957072z m-26.679664-25.727738v361.284336c0 117.30305 30.353586 147.661781 147.666926 147.661781h386.806253c120.225721 0 145.02726-68.085886 169.000367-133.933459l0.941635-2.572774c-0.190385 0.514555 94.678077-243.53877 94.678077-243.53877 0.540283-1.394443 0.967363-2.824906 1.250368-4.291387 7.872688-39.507515-0.761541-77.080304-24.333295-105.802751-23.561463-28.722447-58.72099-44.53986-99.000337-44.53986H264.810464c-14.212003 0.005146-25.727738 11.526027-25.727738 25.732884z" fill="#6E6E96" p-id="3354"></path><path d="M162.568432 64.839046H76.80759c-27.611009 0-49.994141 22.383132-49.994141 49.994141s22.383132 49.994141 49.994141 49.994141h85.760842c27.611009 0 49.994141-22.383132 49.994141-49.994141a49.988995 49.988995 0 0 0-49.994141-49.994141z" fill="#AAC9F7" p-id="3355"></path><path d="M162.568432 39.111308H76.80759C35.056616 39.111308 1.085711 73.082213 1.085711 114.833187c0 41.756119 33.970906 75.721879 75.721879 75.721879h85.760842c41.750974 0 75.721879-33.970906 75.721879-75.721879 0-41.756119-33.96576-75.721879-75.721879-75.721879z m0 51.455476c13.378424 0 24.266403 10.887979 24.266403 24.266403a24.29213 24.29213 0 0 1-24.266403 24.266402H76.80759c-13.378424 0-24.266403-10.887979-24.266403-24.266402s10.887979-24.266403 24.266403-24.266403h85.760842z" fill="#6E6E96" p-id="3356"></path><path d="M965.335611 150.136789c6.694357 17.438261 8.526172 37.572789 4.255368 58.993704l-94.873607 244.048179c-23.973106 65.785827-42.193491 119.587673-145.763074 119.587673H342.142899c-26.576754 0-47.503696-1.219495-63.995176-4.780214 10.275659 47.77641 40.166145 57.954303 117.169266 57.954303H782.123242c103.569583 0 121.789967-53.801846 145.763074-119.587673l94.873607-244.048179c10.219058-51.259946-14.345787-95.249232-57.424312-112.167793z" fill="#6E6E96" opacity=".15" p-id="3357"></path><path d="M286.910591 778.341264h689.93561v24.266403H286.910591z" fill="#6E6E96" opacity=".15" p-id="3358"></path><path d="M282.521439 832.5599h203.341752v52.489731H282.521439z" fill="#6E6E96" opacity=".15" p-id="3359"></path><path d="M671.09776 837.02109h210.092711v48.028541h-210.092711z" fill="#6E6E96" opacity=".15" p-id="3360"></path></svg>